<svg width="48" height="48" viewBox="0 0 48 48" fill="none" xmlns="http://www.w3.org/2000/svg">
<rect x="0.445923" y="-3.05176e-05" width="47.5541" height="47.5541" rx="23.7771" fill="#28323C"/>
<path d="M31.8378 29.6567C31.5424 30.3391 31.1928 30.9672 30.7878 31.5447C30.2356 32.3319 29.7835 32.8768 29.4351 33.1795C28.895 33.6762 28.3163 33.9305 27.6966 33.945C27.2518 33.945 26.7153 33.8184 26.0908 33.5616C25.4642 33.306 24.8884 33.1795 24.362 33.1795C23.8098 33.1795 23.2176 33.306 22.5842 33.5616C21.9498 33.8184 21.4388 33.9522 21.048 33.9655C20.4538 33.9908 19.8615 33.7292 19.2703 33.1795C18.8929 32.8503 18.4209 32.2861 17.8555 31.4868C17.2489 30.6332 16.7501 29.6435 16.3594 28.515C15.9409 27.2962 15.7311 26.1159 15.7311 24.9732C15.7311 23.6643 16.014 22.5354 16.5805 21.5894C17.0257 20.8295 17.618 20.2301 18.3593 19.7901C19.1006 19.35 19.9016 19.1258 20.7642 19.1114C21.2362 19.1114 21.8552 19.2574 22.6243 19.5444C23.3913 19.8323 23.8838 19.9783 24.0997 19.9783C24.2612 19.9783 24.8083 19.8075 25.7357 19.4672C26.6128 19.1516 27.353 19.0209 27.9594 19.0724C29.6027 19.205 30.8372 19.8527 31.6582 21.0198C30.1886 21.9102 29.4616 23.1574 29.4761 24.7573C29.4893 26.0035 29.9414 27.0406 30.8299 27.864C31.2326 28.2462 31.6823 28.5415 32.1826 28.7513C32.0741 29.066 31.9596 29.3674 31.8378 29.6567V29.6567ZM28.0691 14.8268C28.0691 15.8035 27.7123 16.7156 27.001 17.5597C26.1426 18.5633 25.1044 19.1431 23.9785 19.0516C23.9641 18.9345 23.9558 18.8111 23.9558 18.6815C23.9558 17.7438 24.364 16.7403 25.0889 15.9198C25.4508 15.5043 25.9111 15.1589 26.4693 14.8833C27.0263 14.6119 27.5532 14.4617 28.0486 14.436C28.0631 14.5666 28.0691 14.6972 28.0691 14.8268V14.8268Z" fill="white"/>
</svg>
