<svg width="49" height="48" viewBox="0 0 49 48" fill="none" xmlns="http://www.w3.org/2000/svg">
<rect x="1.38852" y="0.42456" width="46.7049" height="46.7049" rx="23.3525" fill="white"/>
<path fill-rule="evenodd" clip-rule="evenodd" d="M34.1159 23.999C34.1159 23.3065 34.0538 22.6407 33.9384 22.0015H24.741V25.779H29.9967C29.7703 26.9997 29.0822 28.0339 28.048 28.7264V31.1767H31.204C33.0506 29.4766 34.1159 26.973 34.1159 23.999Z" fill="#4285F4"/>
<path fill-rule="evenodd" clip-rule="evenodd" d="M24.7409 33.5424C27.3776 33.5424 29.5882 32.668 31.204 31.1765L28.0479 28.7262C27.1735 29.3122 26.0549 29.6584 24.7409 29.6584C22.1975 29.6584 20.0446 27.9406 19.2767 25.6323H16.0141V28.1625C17.6209 31.3541 20.9235 33.5424 24.7409 33.5424Z" fill="#34A853"/>
<path fill-rule="evenodd" clip-rule="evenodd" d="M19.2767 25.6325C19.0814 25.0466 18.9704 24.4207 18.9704 23.777C18.9704 23.1334 19.0814 22.5075 19.2767 21.9216V19.3914H16.0141C15.3527 20.7098 14.9754 22.2012 14.9754 23.777C14.9754 25.3529 15.3527 26.8443 16.0141 28.1627L19.2767 25.6325Z" fill="#FBBC05"/>
<path fill-rule="evenodd" clip-rule="evenodd" d="M24.7409 17.8955C26.1747 17.8955 27.462 18.3882 28.4741 19.3559L31.275 16.5549C29.5838 14.9791 27.3732 14.0114 24.7409 14.0114C20.9235 14.0114 17.6209 16.1998 16.0141 19.3914L19.2767 21.9216C20.0446 19.6133 22.1975 17.8955 24.7409 17.8955Z" fill="#EA4335"/>
<rect x="1.38852" y="0.42456" width="46.7049" height="46.7049" rx="23.3525" stroke="#E9EBEE" stroke-width="0.84918"/>
</svg>
