<svg width="48" height="48" viewBox="0 0 48 48" fill="none" xmlns="http://www.w3.org/2000/svg">
<rect width="47.5541" height="47.5541" rx="23.7771" fill="#FEDD35"/>
<g clip-path="url(#clip0_143_1583)">
<path d="M23.3334 16.2671C25.0059 16.2671 26.5529 16.5926 27.9742 17.2436C29.3955 17.8946 30.5191 18.7799 31.345 19.8994C32.171 21.0189 32.584 22.24 32.584 23.5627C32.584 24.8854 32.171 26.1082 31.345 27.2312C30.5191 28.3541 29.3972 29.2411 27.9793 29.8921C26.5614 30.5431 25.0128 30.8687 23.3334 30.8687C22.8034 30.8687 22.2562 30.8308 21.6918 30.755C19.2415 32.4566 17.9372 33.3178 17.7789 33.3384C17.7032 33.366 17.6309 33.3625 17.5621 33.3281C17.5345 33.3075 17.5139 33.2799 17.5001 33.2454C17.4864 33.211 17.4795 33.18 17.4795 33.1524V33.1111C17.5208 32.8424 17.834 31.7229 18.419 29.7526C17.0906 29.0913 16.0358 28.2146 15.2546 27.1227C14.4734 26.0308 14.0828 24.8441 14.0828 23.5627C14.0828 22.24 14.4958 21.0189 15.3217 19.8994C16.1477 18.7799 17.2713 17.8946 18.6926 17.2436C20.1139 16.5926 21.6608 16.2671 23.3334 16.2671Z" fill="#3C1E1E"/>
</g>
<defs>
<clipPath id="clip0_143_1583">
<rect width="19.5311" height="19.5311" fill="white" transform="translate(13.5869 14.436)"/>
</clipPath>
</defs>
</svg>
