<svg width="24" height="24" viewBox="0 0 24 24" fill="none" xmlns="http://www.w3.org/2000/svg">
<path fill-rule="evenodd" clip-rule="evenodd" d="M12 2.59631C11.124 2.59631 10.248 2.88314 9.52142 3.45678L4.02142 7.79889C3.06058 8.55745 2.5 9.71423 2.5 10.9384V17.5C2.5 19.7092 4.29086 21.5 6.5 21.5H8C8.55228 21.5 9 21.0523 9 20.5V17.5C9 16.3954 9.89543 15.5 11 15.5H12V2.59631Z" fill="#25B5CD"/>
<path d="M9.52142 3.45678L9.05669 2.86812V2.86812L9.52142 3.45678ZM12 2.59631H12.75V1.84631L12 1.84631V2.59631ZM4.02142 7.79889L4.48616 8.38755H4.48616L4.02142 7.79889ZM12 15.5V16.25H12.75V15.5H12ZM9.98616 4.04544C10.5766 3.5793 11.2878 3.34631 12 3.34631V1.84631C10.9603 1.84631 9.91948 2.18697 9.05669 2.86812L9.98616 4.04544ZM4.48616 8.38755L9.98616 4.04544L9.05669 2.86812L3.55669 7.21023L4.48616 8.38755ZM3.25 10.9384C3.25 9.94377 3.70547 9.00388 4.48616 8.38755L3.55669 7.21023C2.41569 8.11102 1.75 9.4847 1.75 10.9384H3.25ZM3.25 17.5V10.9384H1.75V17.5H3.25ZM6.5 20.75C4.70507 20.75 3.25 19.2949 3.25 17.5H1.75C1.75 20.1234 3.87665 22.25 6.5 22.25V20.75ZM8 20.75H6.5V22.25H8V20.75ZM8.25 20.5C8.25 20.6381 8.13807 20.75 8 20.75V22.25C8.9665 22.25 9.75 21.4665 9.75 20.5H8.25ZM8.25 17.5V20.5H9.75V17.5H8.25ZM11 14.75C9.48122 14.75 8.25 15.9812 8.25 17.5H9.75C9.75 16.8097 10.3096 16.25 11 16.25V14.75ZM12 14.75H11V16.25H12V14.75ZM12.75 15.5V2.59631H11.25V15.5H12.75Z" fill="#25B5CD"/>
<g opacity="0.3">
<path fill-rule="evenodd" clip-rule="evenodd" d="M12 2.59631C12.876 2.59631 13.752 2.88314 14.4786 3.45678L19.9786 7.79889C20.9394 8.55745 21.5 9.71423 21.5 10.9384V17.5C21.5 19.7092 19.7091 21.5 17.5 21.5H16C15.4477 21.5 15 21.0523 15 20.5V17.5C15 16.3954 14.1046 15.5 13 15.5H12V2.59631Z" fill="#25B5CD"/>
<path d="M14.4786 3.45678L14.9433 2.86812V2.86812L14.4786 3.45678ZM12 2.59631H11.25V1.84631L12 1.84631V2.59631ZM19.9786 7.79889L19.5138 8.38755H19.5138L19.9786 7.79889ZM12 15.5V16.25H11.25V15.5H12ZM14.0138 4.04544C13.4234 3.5793 12.7122 3.34631 12 3.34631V1.84631C13.0397 1.84631 14.0805 2.18697 14.9433 2.86812L14.0138 4.04544ZM19.5138 8.38755L14.0138 4.04544L14.9433 2.86812L20.4433 7.21023L19.5138 8.38755ZM20.75 10.9384C20.75 9.94377 20.2945 9.00388 19.5138 8.38755L20.4433 7.21023C21.5843 8.11102 22.25 9.4847 22.25 10.9384H20.75ZM20.75 17.5V10.9384H22.25V17.5H20.75ZM17.5 20.75C19.2949 20.75 20.75 19.2949 20.75 17.5H22.25C22.25 20.1234 20.1234 22.25 17.5 22.25V20.75ZM16 20.75H17.5V22.25H16V20.75ZM15.75 20.5C15.75 20.6381 15.8619 20.75 16 20.75V22.25C15.0335 22.25 14.25 21.4665 14.25 20.5H15.75ZM15.75 17.5V20.5H14.25V17.5H15.75ZM13 14.75C14.5188 14.75 15.75 15.9812 15.75 17.5H14.25C14.25 16.8097 13.6904 16.25 13 16.25V14.75ZM12 14.75H13V16.25H12V14.75ZM11.25 15.5V2.59631H12.75V15.5H11.25Z" fill="#25B5CD"/>
</g>
</svg>
